# xmcd
#
# Track frame offsets:
#  150
#  30920
#  70427
#  90907
#  118457
#  174334
#
# Disc length: 3561 seconds
#
# Revision: 0
# Processed by: cddbd v1.5.2PL0 Copyright (c) Steve Scherf et al.
# Submitted via: Collectorz.com_Music_Collector 6.11
#
DISCID=450de706
DTITLE=Eric Clapton - Wired (2CDs) [CD2)
DYEAR=1991
DGENRE=Blues
TTITLE0=Badge
TTITLE1=Wonderful Tonight
TTITLE2=Band Introduction
TTITLE3=Cocaine
TTITLE4=Layla
TTITLE5=Sunshine Of Your Love
EXTD=
EXTT0=
EXTT1=
EXTT2=
EXTT3=
EXTT4=
EXTT5=
PLAYORDER=
